<svg xmlns="http://www.w3.org/2000/svg" viewBox="0 0 64 64" fill="none">
  <path d="M32 4c1.8 14.8 5.7 24.4 25.4 28C37.7 35.6 33.8 45.2 32 60 30.2 45.2 26.3 35.6 6.6 32 26.3 28.4 30.2 18.8 32 4Z" fill="#171D2B"/>
  <path d="M14.2 9.8c.7 5.7 2.2 9.3 9.8 10.7-7.6 1.4-9.1 5-9.8 10.7-.7-5.7-2.2-9.3-9.8-10.7 7.6-1.4 9.1-5 9.8-10.7Z" fill="#171D2B" opacity=".92"/>
  <path d="M50.4 17.6c.55 4.5 1.75 7.35 7.75 8.45-6 1.1-7.2 3.95-7.75 8.45-.55-4.5-1.75-7.35-7.75-8.45 6-1.1 7.2-3.95 7.75-8.45Z" fill="#171D2B" opacity=".88"/>
  <path d="M16.2 43.4c.48 3.9 1.52 6.35 6.72 7.3-5.2.95-6.24 3.4-6.72 7.3-.48-3.9-1.52-6.35-6.72-7.3 5.2-.95 6.24-3.4 6.72-7.3Z" fill="#171D2B" opacity=".84"/>
  <path d="M47.6 43.5c.38 3.1 1.2 5.05 5.33 5.8-4.13.75-4.95 2.7-5.33 5.8-.38-3.1-1.2-5.05-5.33-5.8 4.13-.75 4.95-2.7 5.33-5.8Z" fill="#171D2B" opacity=".78"/>
  <circle cx="8.2" cy="38" r="2.25" fill="#171D2B" opacity=".72"/>
  <circle cx="54.5" cy="39.5" r="2.25" fill="#171D2B" opacity=".72"/>
  <circle cx="42.5" cy="9.5" r="2" fill="#171D2B" opacity=".72"/>
</svg>
